<svg width="190" height="52" viewBox="0 0 190 52" fill="none" xmlns="http://www.w3.org/2000/svg" role="img" aria-labelledby="title desc">
<title id="title">Glo Talk logo</title><desc id="desc">A modern chat bubble with connected globe nodes and the words Glo Talk.</desc>
<rect width="190" height="52" rx="16" fill="white"/>
<path d="M15 24C15 14.6 22.6 7 32 7h10c9.4 0 17 7.6 17 17s-7.6 17-17 17h-8.7L22 48v-9.8c-4.2-3.1-7-8.2-7-14.2Z" fill="#071B33"/>
<circle cx="32" cy="24" r="10" fill="#2563EB"/><path d="M22 24h20M32 14c3 3 4.5 6.3 4.5 10S35 31 32 34M32 14c-3 3-4.5 6.3-4.5 10S29 31 32 34" stroke="white" stroke-width="2" stroke-linecap="round"/><circle cx="44" cy="17" r="4" fill="#22C55E"/><circle cx="45" cy="32" r="3" fill="#22C55E"/>
<text x="70" y="24" font-family="Inter, ui-sans-serif, system-ui, sans-serif" font-size="18" font-weight="800" fill="#071B33">Glo</text><text x="106" y="24" font-family="Inter, ui-sans-serif, system-ui, sans-serif" font-size="18" font-weight="800" fill="#2563EB">Talk</text><text x="70" y="38" font-family="Inter, ui-sans-serif, system-ui, sans-serif" font-size="9" font-weight="600" fill="#64748B">Mattermost setup services</text>
</svg>
